<?xml version="1.0" encoding="utf-8" ?><svg xmlns="http://www.w3.org/2000/svg" xmlns:xlink="http://www.w3.org/1999/xlink" width="1820" height="1024" viewBox="0 0 1820 1024"><path fill="#E1E1E1" d="M0 0L1820 0L1820 1024L0 1024L0 0ZM563.234 273.963C547.62 277.467 542.138 284.862 536.528 299.018C531.325 312.145 526.239 325.332 521.188 338.518L492.518 411.734L460.246 492.678C456.339 502.537 452.134 512.28 448.192 522.239C442.901 535.609 448.126 552.146 464.127 552.949C477.065 553.598 490.552 553.121 503.542 553.051L572.749 553.001L639.278 553.154C651.244 553.171 673.712 555.732 682.301 547.344C697.396 532.601 680.177 503.49 673.583 486.951L646.803 419.234L613.137 333.265C608.296 320.976 603.608 308.571 598.756 296.279C592.41 280.202 580.77 272.259 563.234 273.963ZM719.199 277.577C707.259 281.22 699.979 287.62 699.636 300.796C699.266 315.033 699.413 329.259 699.417 343.499L699.446 420.198C699.446 438.309 697.344 526.682 700.792 537.376C702.653 543.15 705.625 547.663 711.138 550.439C723.198 556.513 747.174 553.091 760.982 553.389C758.971 534.671 760.084 497.309 760.124 477.308L800.479 477.349C828.488 475.819 852.916 466.615 871.795 445.312C907.223 405.146 905.559 338.444 864.874 302.422C836.024 276.878 799.522 276.792 763.182 277.343C749.088 277.557 733.116 276.565 719.199 277.577ZM1026.33 277.691C945.738 285.282 894.108 352.698 901.69 432.262C905.197 468.408 922.821 501.71 950.733 524.934C986.001 553.956 1024.55 556.197 1068.53 554.429C1076.57 554.105 1086.38 549.016 1087.66 540.719C1089.72 527.374 1088.43 511.468 1088.5 497.9C1075.34 497.894 1044 498.642 1032.19 497.105C1000.74 492.963 981.363 475.225 969.989 446.316L1088.81 446.252L1088.68 385.377C1048.93 385.002 1009.18 384.978 969.425 385.306C995.4 330.676 1037.19 337.526 1088.58 337.747C1088.98 275.988 1093.01 274.96 1029.51 277.508C1028.43 277.551 1027.42 277.559 1026.33 277.691ZM1115.14 277.437C1105.99 281.575 1098.74 291.165 1104.89 300.198C1130.06 337.136 1154.96 377.069 1180.51 413.49L1128.04 490.763C1119.56 503.174 1110.71 515.334 1102.81 528.107C1098 535.892 1099.03 545.34 1106.88 550.711C1115.77 556.801 1143.64 554.906 1153.72 553.782C1167.62 552.232 1181.35 522.573 1189.43 512.25C1199.17 497.656 1208.92 483.227 1217.96 468.804C1218.35 468.165 1218.74 467.521 1219.11 466.871C1235.25 491.343 1250.17 516.76 1266.2 541.333C1271 548.691 1274.81 551.734 1283.71 553.454C1293.13 555.215 1303.16 554.731 1312.75 554.728C1319.24 554.749 1325.8 554.885 1330.54 549.867C1341.37 538.405 1330.34 524.419 1324.36 514.95C1302.57 480.471 1279.1 447.056 1257.74 412.444C1281.64 378.257 1304.55 343.311 1327.51 308.275C1340.07 289.115 1331.57 277.918 1309.33 277.1C1268.01 275.58 1269.6 279.847 1247.75 314.315L1221.91 355.113C1221.01 356.573 1220.14 358.048 1219.28 359.538C1209.44 344.302 1199.73 328.976 1190.16 313.563C1183.18 302.479 1171.82 279.778 1157.94 278.194C1145.41 276.763 1127.77 276.433 1115.14 277.437ZM525.171 576.338C481.993 581.28 454.269 615.952 459.838 659.215C462.001 677.238 471.318 693.634 485.692 704.716C515.478 727.655 568.174 724.472 590.856 693.506C597.881 683.915 601.424 675.518 604.304 664.098L567.639 664.15L564.88 664.334C562.779 667.023 562.799 669.56 561.238 672.639C554.903 685.126 545.936 689.751 532.468 689.237C499.513 687.981 488.422 643.359 507.815 620.27C513.856 613.08 522.534 608.622 531.895 607.898C548.752 606.452 560.494 615.558 563.809 632.005C577.132 631.962 590.753 632.073 604.047 631.863C594.669 592.812 564.822 572.205 525.171 576.338ZM657.464 576.948C642.736 610.721 627.532 644.285 611.855 677.628C606.057 690.121 599.741 705.802 593.689 717.721L633.57 718.171C637.218 708.511 641.027 699.873 645.203 690.46L692.809 690.569L705.012 690.55C708.202 697.99 713.173 710.718 716.694 717.52L756.655 717.603C735.054 673.491 714.939 622.382 694.093 577.072L657.464 576.948ZM1124.8 577.25C1103.75 623.425 1081.12 671.52 1061.18 717.992C1074.44 717.66 1087.81 717.98 1101.08 718.175C1104.7 708.584 1108.58 699.095 1112.72 689.717L1160.16 689.833L1170.91 689.832C1174.46 699.215 1178.13 708.55 1181.92 717.836L1221.84 717.7C1201.73 670.676 1181.2 623.827 1160.28 577.159C1148.78 577.161 1136.21 576.93 1124.8 577.25ZM1249.15 577.321L1232.98 577.551L1232.93 717.734C1260.04 718.118 1287.16 718.255 1314.27 718.145L1330.27 718.104L1330.12 688.017L1272.53 688.062C1272.77 651.173 1272.78 614.282 1272.54 577.393L1249.15 577.321ZM766.017 577.597L765.992 717.477L805.053 717.56L804.985 675.382C820.164 675.427 833.425 675.866 848.468 673.483C878.288 666.537 896.341 645.328 888.649 613.812C885.923 602.214 878.557 592.243 868.273 586.23C847.257 573.854 792.29 577.402 766.017 577.597ZM906.337 577.514L906.066 668.976C906.029 683.502 905.439 703.501 906.177 717.628L945.131 717.651C945.531 670.945 945.62 624.236 945.395 577.528L906.337 577.514ZM958.036 577.639L957.913 607.866L1000.9 607.811L1000.69 717.742C1013.45 717.764 1026.69 717.623 1039.4 717.934L1039.56 674.84L1039.36 607.924L1083.42 607.768L1083.38 577.58C1042.48 577.435 998.884 576.838 958.036 577.639Z"/><path d="M572.749 553.001L503.542 553.051C490.552 553.121 477.065 553.598 464.127 552.949C448.126 552.146 442.901 535.609 448.192 522.239C452.134 512.28 456.339 502.537 460.246 492.678L492.518 411.734L521.188 338.518C526.239 325.332 531.325 312.145 536.528 299.018C542.138 284.862 547.62 277.467 563.234 273.963C580.77 272.259 592.41 280.202 598.756 296.279C603.608 308.571 608.296 320.976 613.137 333.265L646.803 419.234L673.583 486.951C680.177 503.49 697.396 532.601 682.301 547.344C673.712 555.732 651.244 553.171 639.278 553.154L572.749 553.001ZM567.597 383.74C553.855 420.362 539.837 456.879 525.545 493.289L570.083 493.174L610.979 493.212C606.783 482.214 570.803 387.129 567.597 383.74Z"/><path d="M760.982 553.389C747.174 553.091 723.198 556.513 711.138 550.439C705.625 547.663 702.653 543.15 700.792 537.376C697.344 526.682 699.446 438.309 699.446 420.198L699.417 343.499C699.413 329.259 699.266 315.033 699.636 300.796C699.979 287.62 707.259 281.22 719.199 277.577C733.116 276.565 749.088 277.557 763.182 277.343C799.522 276.792 836.024 276.878 864.874 302.422C905.559 338.444 907.223 405.146 871.795 445.312C852.916 466.615 828.488 475.819 800.479 477.349L760.124 477.308C760.084 497.309 758.971 534.671 760.982 553.389ZM759.947 338.682C760.065 364.64 759.824 391.651 760.462 417.522C782.32 417.553 808.292 420.826 825.054 406.796C839.611 389.857 840.91 363.833 823.749 348.232C810.079 335.805 777.847 338.603 759.947 338.682Z"/><path d="M1088.5 497.9C1088.43 511.468 1089.72 527.374 1087.66 540.719C1086.38 549.016 1076.57 554.105 1068.53 554.429C1024.55 556.197 986.001 553.956 950.733 524.934C922.821 501.71 905.197 468.408 901.69 432.262C894.108 352.698 945.738 285.282 1026.33 277.691C1027.42 277.559 1028.43 277.551 1029.51 277.508C1093.01 274.96 1088.98 275.988 1088.58 337.747C1037.19 337.526 995.4 330.676 969.425 385.306C1009.18 384.978 1048.93 385.002 1088.68 385.377L1088.81 446.252L969.989 446.316C981.363 475.225 1000.74 492.963 1032.19 497.105C1044 498.642 1075.34 497.894 1088.5 497.9Z"/><path d="M1180.51 413.49C1154.96 377.069 1130.06 337.136 1104.89 300.198C1098.74 291.165 1105.99 281.575 1115.14 277.437C1127.77 276.433 1145.41 276.763 1157.94 278.194C1171.82 279.778 1183.18 302.479 1190.16 313.563C1199.73 328.976 1209.44 344.302 1219.28 359.538C1220.14 358.048 1221.01 356.573 1221.91 355.113L1247.75 314.315C1269.6 279.847 1268.01 275.58 1309.33 277.1C1331.57 277.918 1340.07 289.115 1327.51 308.275C1304.55 343.311 1281.64 378.257 1257.74 412.444C1279.1 447.056 1302.57 480.471 1324.36 514.95C1330.34 524.419 1341.37 538.405 1330.54 549.867C1325.8 554.885 1319.24 554.749 1312.75 554.728C1303.16 554.731 1293.13 555.215 1283.71 553.454C1274.81 551.734 1271 548.691 1266.2 541.333C1250.17 516.76 1235.25 491.343 1219.11 466.871C1218.74 467.521 1218.35 468.165 1217.96 468.804C1208.92 483.227 1199.17 497.656 1189.43 512.25C1181.35 522.573 1167.62 552.232 1153.72 553.782C1143.64 554.906 1115.77 556.801 1106.88 550.711C1099.03 545.34 1098 535.892 1102.81 528.107C1110.71 515.334 1119.56 503.174 1128.04 490.763L1180.51 413.49Z"/><path fill="#E1E1E1" d="M760.462 417.522C759.824 391.651 760.065 364.64 759.947 338.682C777.847 338.603 810.079 335.805 823.749 348.232C840.91 363.833 839.611 389.857 825.054 406.796C808.292 420.826 782.32 417.553 760.462 417.522Z"/><path fill="#E1E1E1" d="M525.545 493.289C539.837 456.879 553.855 420.362 567.597 383.74C570.803 387.129 606.783 482.214 610.979 493.212L570.083 493.174L525.545 493.289Z"/><path d="M604.304 664.098C601.424 675.518 597.881 683.915 590.856 693.506C568.174 724.472 515.478 727.655 485.692 704.716C471.318 693.634 462.001 677.238 459.838 659.215C454.269 615.952 481.993 581.28 525.171 576.338C564.822 572.205 594.669 592.812 604.047 631.863C590.753 632.073 577.132 631.962 563.809 632.005C560.494 615.558 548.752 606.452 531.895 607.898C522.534 608.622 513.856 613.08 507.815 620.27C488.422 643.359 499.513 687.981 532.468 689.237C545.936 689.751 554.903 685.126 561.238 672.639C562.799 669.56 562.779 667.023 564.88 664.334L567.639 664.15L604.304 664.098Z"/><path d="M593.689 717.721C599.741 705.802 606.057 690.121 611.855 677.628C627.532 644.285 642.736 610.721 657.464 576.948L694.093 577.072C714.939 622.382 735.054 673.491 756.655 717.603L716.694 717.52C713.173 710.718 708.202 697.99 705.012 690.55L692.809 690.569L645.203 690.46C641.027 699.873 637.218 708.511 633.57 718.171L593.689 717.721ZM674.759 618.392C670.037 629.547 660.874 651.113 656.856 662.316L675.366 662.208L693.191 662.321C689.411 653.082 678.984 625.904 674.759 618.392Z"/><path d="M1061.18 717.992C1081.12 671.52 1103.75 623.425 1124.8 577.25C1136.21 576.93 1148.78 577.161 1160.28 577.159C1181.2 623.827 1201.73 670.676 1221.84 717.7L1181.92 717.836C1178.13 708.55 1174.46 699.215 1170.91 689.832L1160.16 689.833L1112.72 689.717C1108.58 699.095 1104.7 708.584 1101.08 718.175C1087.81 717.98 1074.44 717.66 1061.18 717.992ZM1141.91 619.093C1136.5 632.888 1129.8 650.008 1123.17 663.276L1144.54 663.255L1160.76 663.37C1158.05 656.849 1144.21 622.712 1141.91 619.093Z"/><path d="M1232.98 577.551L1249.15 577.321L1272.54 577.393C1272.78 614.282 1272.77 651.173 1272.53 688.062L1330.12 688.017L1330.27 718.104L1314.27 718.145C1287.16 718.255 1260.04 718.118 1232.93 717.734L1232.98 577.551Z"/><path d="M765.992 717.477L766.017 577.597C792.29 577.402 847.257 573.854 868.273 586.23C878.557 592.243 885.923 602.214 888.649 613.812C896.341 645.328 878.288 666.537 848.468 673.483C833.425 675.866 820.164 675.427 804.985 675.382L805.053 717.56L765.992 717.477ZM819.001 607.541L805.109 607.645L805.057 647.035C816.755 647.023 826.819 647.298 838.452 645.967L838.875 645.915C849.17 641.533 856.251 632.81 851.287 621.329C845.606 608.191 831.54 607.029 819.001 607.541Z"/><path d="M906.177 717.628C905.439 703.501 906.029 683.502 906.066 668.976L906.337 577.514L945.395 577.528C945.62 624.236 945.531 670.945 945.131 717.651L906.177 717.628Z"/><path d="M957.913 607.866L958.036 577.639C998.884 576.838 1042.48 577.435 1083.38 577.58L1083.42 607.768L1039.36 607.924L1039.56 674.84L1039.4 717.934C1026.69 717.623 1013.45 717.764 1000.69 717.742L1000.9 607.811L957.913 607.866Z"/><path fill="#E1E1E1" d="M805.109 607.645L819.001 607.541C831.54 607.029 845.606 608.191 851.287 621.329C856.251 632.81 849.17 641.533 838.875 645.915L838.452 645.967C826.819 647.298 816.755 647.023 805.057 647.035L805.109 607.645Z"/><path fill="#E1E1E1" d="M656.856 662.316C660.874 651.113 670.037 629.547 674.759 618.392C678.984 625.904 689.411 653.082 693.191 662.321L675.366 662.208L656.856 662.316Z"/><path fill="#E1E1E1" d="M1123.17 663.276C1129.8 650.008 1136.5 632.888 1141.91 619.093C1144.21 622.712 1158.05 656.849 1160.76 663.37L1144.54 663.255L1123.17 663.276Z"/></svg>